<?xml version="1.0" encoding="UTF-8" standalone="no"?>
<!DOCTYPE svg PUBLIC "-//W3C//DTD SVG 1.1//EN"
 "http://www.w3.org/Graphics/SVG/1.1/DTD/svg11.dtd">
<!-- Generated by graphviz version 2.43.0 (0)
 -->
<!-- Title: pastafarianism Pages: 1 -->
<svg width="255pt" height="188pt"
 viewBox="0.00 0.00 254.50 188.00" xmlns="http://www.w3.org/2000/svg" xmlns:xlink="http://www.w3.org/1999/xlink">
<g id="graph0" class="graph" transform="scale(1 1) rotate(0) translate(4 184)">
<title>pastafarianism</title>
<polygon fill="white" stroke="transparent" points="-4,4 -4,-184 250.5,-184 250.5,4 -4,4"/>
<!-- MainSequence -->
<g id="node1" class="node">
<title>MainSequence</title>
<polygon fill="orange" stroke="black" points="116,-180 19,-180 19,-144 116,-144 116,-180"/>
<text text-anchor="middle" x="67.5" y="-159.8" font-family="Times,serif" font-size="9.00">Ⓜ MainSequence</text>
</g>
<!-- GetA -->
<g id="node2" class="node">
<title>GetA</title>
<ellipse fill="gray" stroke="black" cx="31.5" cy="-90" rx="27" ry="18"/>
<text text-anchor="middle" x="31.5" y="-87.8" font-family="Times,serif" font-size="9.00">GetA</text>
</g>
<!-- MainSequence&#45;&gt;GetA -->
<g id="edge1" class="edge">
<title>MainSequence&#45;&gt;GetA</title>
<path fill="none" stroke="black" d="M58.6,-143.7C54.34,-135.4 49.15,-125.31 44.45,-116.19"/>
<polygon fill="black" stroke="black" points="47.49,-114.44 39.8,-107.14 41.26,-117.64 47.49,-114.44"/>
</g>
<!-- GoA -->
<g id="node3" class="node">
<title>GoA</title>
<polygon fill="orange" stroke="black" points="130.5,-108 76.5,-108 76.5,-72 130.5,-72 130.5,-108"/>
<text text-anchor="middle" x="103.5" y="-87.8" font-family="Times,serif" font-size="9.00">Ⓜ GoA</text>
</g>
<!-- MainSequence&#45;&gt;GoA -->
<g id="edge2" class="edge">
<title>MainSequence&#45;&gt;GoA</title>
<path fill="none" stroke="black" d="M76.4,-143.7C80.5,-135.73 85.45,-126.1 89.99,-117.26"/>
<polygon fill="black" stroke="black" points="93.24,-118.6 94.7,-108.1 87.02,-115.4 93.24,-118.6"/>
</g>
<!-- /loc -->
<g id="node6" class="node">
<title>/loc</title>
<polygon fill="white" stroke="blue" points="102,-26.5 63,-26.5 63,-9.5 102,-9.5 102,-26.5"/>
<text text-anchor="middle" x="82.5" y="-16.1" font-family="Times,serif" font-size="8.00" fill="blue">/loc: &#45;</text>
</g>
<!-- GetA&#45;&gt;/loc -->
<g id="edge7" class="edge">
<title>GetA&#45;&gt;/loc</title>
<path fill="none" stroke="blue" d="M42.82,-73.46C51.15,-62.02 62.46,-46.51 70.87,-34.97"/>
<polygon fill="blue" stroke="blue" points="73.82,-36.86 76.88,-26.72 68.16,-32.74 73.82,-36.86"/>
</g>
<!-- /plan -->
<g id="node4" class="node">
<title>/plan</title>
<polygon fill="white" stroke="blue" points="45,-26.5 0,-26.5 0,-9.5 45,-9.5 45,-26.5"/>
<text text-anchor="middle" x="22.5" y="-16.1" font-family="Times,serif" font-size="8.00" fill="blue">/plan: &#45;</text>
</g>
<!-- GoA&#45;&gt;/plan -->
<g id="edge3" class="edge">
<title>GoA&#45;&gt;/plan</title>
<path fill="none" stroke="blue" d="M83.48,-71.7C69.8,-59.87 51.88,-44.39 39.02,-33.28"/>
<polygon fill="blue" stroke="blue" points="41.24,-30.57 31.39,-26.68 36.67,-35.87 41.24,-30.57"/>
</g>
<!-- GoToLoc -->
<g id="node5" class="node">
<title>GoToLoc</title>
<ellipse fill="gray" stroke="blue" cx="147.5" cy="-18" rx="27" ry="18"/>
<text text-anchor="middle" x="147.5" y="-16.4" font-family="Times,serif" font-size="7.00" fill="blue">GoToLoc</text>
</g>
<!-- GoToLoc&#45;&gt;/plan -->
<g id="edge4" class="edge">
<title>GoToLoc&#45;&gt;/plan</title>
<path fill="none" stroke="blue" d="M133.28,-33.57C125.13,-41.32 114.21,-49.89 102.5,-54 86.14,-59.74 79.72,-60.11 63.5,-54 52.95,-50.03 43.36,-41.97 36.1,-34.49"/>
<polygon fill="blue" stroke="blue" points="38.5,-31.92 29.22,-26.81 33.29,-36.59 38.5,-31.92"/>
</g>
<!-- /loc&#45;&gt;GoA -->
<g id="edge5" class="edge">
<title>/loc&#45;&gt;GoA</title>
<path fill="none" stroke="green" d="M84.8,-26.68C87.35,-35.17 91.59,-49.32 95.4,-61.99"/>
<polygon fill="green" stroke="green" points="92.08,-63.12 98.31,-71.7 98.79,-61.11 92.08,-63.12"/>
</g>
<!-- /loc&#45;&gt;GoToLoc -->
<g id="edge6" class="edge">
<title>/loc&#45;&gt;GoToLoc</title>
<path fill="none" stroke="green" d="M102.05,-18C104.69,-18 107.33,-18 109.97,-18"/>
<polygon fill="green" stroke="green" points="110.16,-21.5 120.16,-18 110.16,-14.5 110.16,-21.5"/>
</g>
<!-- GetLoc -->
<g id="node7" class="node">
<title>GetLoc</title>
<ellipse fill="gray" stroke="blue" cx="219.5" cy="-18" rx="27" ry="18"/>
<text text-anchor="middle" x="219.5" y="-16.4" font-family="Times,serif" font-size="7.00" fill="blue">GetLoc</text>
</g>
<!-- GetLoc&#45;&gt;/loc -->
<g id="edge8" class="edge">
<title>GetLoc&#45;&gt;/loc</title>
<path fill="none" stroke="blue" d="M205.28,-33.57C197.13,-41.32 186.21,-49.89 174.5,-54 151.85,-61.94 142.8,-62.88 120.5,-54 110.67,-50.08 101.92,-42.28 95.3,-34.94"/>
<polygon fill="blue" stroke="blue" points="97.64,-32.28 88.58,-26.79 92.24,-36.73 97.64,-32.28"/>
</g>
</g>
</svg>
